<svg width="230" height="48" viewBox="0 0 230 48" fill="none" xmlns="http://www.w3.org/2000/svg">
<path d="M148.367 13.4V47H143.231L124.703 24.248V47H118.511V13.4H123.647L142.175 36.152V13.4H148.367ZM156.794 21.368H162.794V47H156.794V21.368ZM159.818 17.144C158.73 17.144 157.818 16.808 157.082 16.136C156.346 15.432 155.978 14.568 155.978 13.544C155.978 12.52 156.346 11.672 157.082 11C157.818 10.296 158.73 9.944 159.818 9.944C160.906 9.944 161.818 10.28 162.554 10.952C163.29 11.592 163.658 12.408 163.658 13.4C163.658 14.456 163.29 15.352 162.554 16.088C161.85 16.792 160.938 17.144 159.818 17.144ZM181.133 36.008L176.669 40.232V47H170.669V11.384H176.669V32.888L189.101 21.368H196.301L185.597 32.12L197.309 47H190.013L181.133 36.008ZM224.202 34.328C224.202 34.744 224.17 35.336 224.106 36.104H203.994C204.346 37.992 205.258 39.496 206.73 40.616C208.234 41.704 210.09 42.248 212.298 42.248C215.114 42.248 217.434 41.32 219.258 39.464L222.474 43.16C221.322 44.536 219.866 45.576 218.106 46.28C216.346 46.984 214.362 47.336 212.154 47.336C209.338 47.336 206.858 46.776 204.714 45.656C202.57 44.536 200.906 42.984 199.722 41C198.57 38.984 197.994 36.712 197.994 34.184C197.994 31.688 198.554 29.448 199.674 27.464C200.826 25.448 202.41 23.88 204.426 22.76C206.442 21.64 208.714 21.08 211.242 21.08C213.738 21.08 215.962 21.64 217.914 22.76C219.898 23.848 221.434 25.4 222.522 27.416C223.642 29.4 224.202 31.704 224.202 34.328ZM211.242 25.88C209.322 25.88 207.69 26.456 206.346 27.608C205.034 28.728 204.234 30.232 203.946 32.12H218.49C218.234 30.264 217.45 28.76 216.138 27.608C214.826 26.456 213.194 25.88 211.242 25.88Z" fill="white"/>
<path fill-rule="evenodd" clip-rule="evenodd" d="M59.8456 15.419C39.9949 20.9424 22.3902 25.4554 20.724 25.4467C15.9305 25.421 11.4443 21.6197 10.7696 17.013C10.4527 14.8455 10.5085 11.7029 10.8939 10.0303L11.5947 6.98847L9.02521 10.212C5.044 15.2067 1.23385 23.0622 0.463769 27.864C-1.04903 37.2942 6.50217 43.5128 16.6527 41.1958C20.6759 40.2779 96.9941 7.06822 98.3725 5.63565C99.4257 4.54144 93.7956 5.97124 59.8456 15.419Z" fill="white"/>
</svg>
