<svg width="24" height="24" viewBox="0 0 24 24" fill="none" xmlns="http://www.w3.org/2000/svg">
<path fill-rule="evenodd" clip-rule="evenodd" d="M9.23576 0.0195141C8.27717 0.167622 7.66306 0.45699 7.06498 1.04233C5.56279 2.51266 5.47498 4.91504 6.85519 6.78199C6.9655 6.93126 7.31946 7.32504 7.64177 7.65709C8.66521 8.71149 10.0762 9.8829 12.1334 11.3862L12.7104 11.8078L13.3758 11.3146C15.4311 9.79122 16.7986 8.65449 17.7468 7.6812C18.4867 6.92175 18.779 6.53034 19.0798 5.89619C19.4122 5.19519 19.5241 4.69502 19.522 3.91884C19.52 3.15071 19.443 2.80603 19.1195 2.11478C18.9137 1.67508 18.8313 1.55779 18.4554 1.16941C17.9748 0.672955 17.5594 0.396078 17.0182 0.21151C16.1133 -0.0971494 15.2038 -0.0512363 14.3696 0.345246C13.8865 0.574859 13.6371 0.760103 13.1394 1.25878L12.7064 1.69259L12.2252 1.21113C11.6926 0.678356 11.2714 0.396319 10.7313 0.210931C10.2294 0.0387088 9.61809 -0.0395652 9.23576 0.0195141ZM7.7121 13.547C7.11299 13.6002 6.25303 13.7491 5.65154 13.904C4.95984 14.082 4.03186 14.4079 4.03186 14.4727C4.03186 14.5536 6.38084 21.8036 6.42228 21.8506C6.44131 21.8722 6.676 21.8521 6.94384 21.8059C7.37516 21.7316 7.97468 21.7186 12.1893 21.6921L16.9479 21.6622L17.3988 21.5362C17.946 21.3833 18.4694 21.1403 18.8666 20.8547C19.0297 20.7374 20.1602 19.7775 21.379 18.7216C22.9433 17.3663 23.6347 16.7371 23.7306 16.5817C24.1026 15.9784 24.0886 15.3468 23.6933 14.8945C23.5794 14.7642 23.4001 14.623 23.289 14.5763C23.0429 14.4726 22.6293 14.4667 22.4075 14.5637C22.316 14.6037 21.5671 15.0658 20.7432 15.5905C19.0719 16.6548 18.5405 16.9463 17.8454 17.1799C16.7076 17.5624 16.3503 17.5896 12.4589 17.5906L9.18888 17.5915V16.8701V16.1487L11.5916 16.1346C13.9158 16.121 14.0012 16.1172 14.2053 16.0196C14.5171 15.8705 14.701 15.6897 14.8416 15.3941C15.0971 14.8568 14.9636 14.1955 14.5209 13.8057C14.1624 13.4901 14.1773 13.4914 11.0205 13.4987C9.45873 13.5024 7.96995 13.5241 7.7121 13.547ZM1.32545 15.6528L0.00210969 16.2652L0.00103141 20.1326L0 24L0.503982 23.8168C0.781196 23.7161 1.89403 23.3232 2.97701 22.9438C4.05999 22.5643 4.96425 22.2376 4.98647 22.2177C5.02923 22.1795 2.73369 15.0336 2.68011 15.0379C2.6629 15.0393 2.05334 15.316 1.32545 15.6528Z" fill="white"/>
</svg>
