<svg width="24" height="24" viewBox="0 0 24 24" fill="none" xmlns="http://www.w3.org/2000/svg">
<path d="M21.5 15.5C21.78 15.5 22 15.72 22 16V17C22 18.66 20.66 20 19 20C19 18.35 17.65 17 16 17C14.35 17 13 18.35 13 20H11C11 18.35 9.65 17 8 17C6.35 17 5 18.35 5 20C3.34 20 2 18.66 2 17V15C2 14.45 2.45 14 3 14H12.5C13.88 14 15 12.88 15 11.5V6C15 5.45 15.45 5 16 5H16.84C17.56 5 18.22 5.39 18.58 6.01L19.22 7.13C19.31 7.29 19.19 7.5 19 7.5C17.62 7.5 16.5 8.62 16.5 10V13C16.5 14.38 17.62 15.5 19 15.5H21.5Z" fill="white"/>
<path d="M8 22C9.10457 22 10 21.1046 10 20C10 18.8954 9.10457 18 8 18C6.89543 18 6 18.8954 6 20C6 21.1046 6.89543 22 8 22Z" fill="white"/>
<path d="M16 22C17.1046 22 18 21.1046 18 20C18 18.8954 17.1046 18 16 18C14.8954 18 14 18.8954 14 20C14 21.1046 14.8954 22 16 22Z" fill="white"/>
<path d="M22 12.53V14H19C18.45 14 18 13.55 18 13V10C18 9.45 18.45 9 19 9H20.29L21.74 11.54C21.91 11.84 22 12.18 22 12.53Z" fill="white"/>
<path d="M13.08 2H5.69C3.9 2 2.4 3.28 2.07 4.98H6.44C6.82 4.98 7.12 5.29 7.12 5.67C7.12 6.05 6.82 6.35 6.44 6.35H2V7.73H4.6C4.98 7.73 5.29 8.04 5.29 8.42C5.29 8.8 4.98 9.1 4.6 9.1H2V10.48H2.77C3.15 10.48 3.46 10.79 3.46 11.17C3.46 11.55 3.15 11.85 2.77 11.85H2V12.08C2 12.63 2.45 13.08 3 13.08H12.15C13.17 13.08 14 12.25 14 11.23V2.92C14 2.41 13.59 2 13.08 2Z" fill="white"/>
<path d="M2.07 4.98438H1.92H0.94C0.56 4.98438 0.25 5.29438 0.25 5.67438C0.25 6.05438 0.56 6.35437 0.94 6.35437H1.85H2V5.69438C2 5.45438 2.03 5.21438 2.07 4.98438Z" fill="white"/>
<path d="M1.85 7.73438H0.94C0.56 7.73438 0.25 8.04438 0.25 8.42438C0.25 8.80438 0.56 9.10438 0.94 9.10438H1.85H2V7.73438H1.85Z" fill="white"/>
<path d="M1.85 10.4844H0.94C0.56 10.4844 0.25 10.7944 0.25 11.1744C0.25 11.5544 0.56 11.8544 0.94 11.8544H1.85H2V10.4844H1.85Z" fill="white"/>
</svg>
